<?xml version="1.0"?>
<svg xmlns:rdf="http://www.w3.org/1999/02/22-rdf-syntax-ns#" xmlns="http://www.w3.org/2000/svg" xmlns:cc="http://web.resource.org/cc/" xmlns:xlink="http://www.w3.org/1999/xlink" xmlns:dc="http://purl.org/dc/elements/1.1/" xmlns:svg="http://www.w3.org/2000/svg" text-rendering="geometricPrecision" fill-rule="evenodd" xml:space="preserve" shape-rendering="geometricPrecision" clip-rule="evenodd" image-rendering="optimizeQuality" viewBox="0 0 18.9913 24.7036">
 <g id="Capa_x0020_1">
  <path d="m14.602 12.491c1.1384-0.67193 2.0651-1.7298 2.5529-3.0699 1.1149-3.063-0.47456-6.4706-3.5381-7.5857-3.0636-1.1151-6.4715 0.4737-7.5863 3.5367-0.48773 1.34-0.45787 2.7461-0.015371 3.9918 0.62028-0.21077 1.2712-0.33478 1.9355-0.37247-0.39431-0.90712-0.4578-1.9582-0.094982-2.9551 0.74901-2.0579 3.0387-3.1254 5.097-2.3762 2.0584 0.74916 3.1262 3.0387 2.3772 5.0966-0.36342 0.99856-1.0896 1.7639-1.9764 2.2021 0.48788 0.45491 0.90894 0.97096 1.2487 1.5321zm-1.8056-1.9946c-0.57379-0.44364-1.2265-0.80531-1.9438-1.0664-0.71857-0.26154-1.4523-0.40405-2.1794-0.43815-0.44242-0.81148-0.54878-1.8011-0.20925-2.7339 0.6271-1.723 2.544-2.6166 4.2673-1.9894 1.7232 0.6272 2.6173 2.544 1.9902 4.2669-0.34107 0.93703-1.0637 1.6288-1.925 1.9609zm2.0809 2.4701c0.92649 1.7752 1.135 3.9207 0.39795 5.9456-1.3935 3.8287-5.6535 5.8147-9.4829 4.4209-3.8295-1.3938-5.8162-5.6534-4.4226-9.4821 0.73665-2.024 2.2743-3.5329 4.1253-4.2982-0.48677-1.3667-0.51943-2.9046 0.014031-4.3703 1.2193-3.3501 4.9468-5.0878 8.2975-3.8683 3.3508 1.2196 5.0892 4.9467 3.8698 8.2968-0.53349 1.4657-1.547 2.6227-2.7991 3.3555zm-0.48664 0.26078c0.85254 1.643 1.0439 3.6246 0.36314 5.495-1.289 3.5416-5.2294 5.3786-8.7717 4.0893-3.5422-1.2893-5.38-5.2293-4.091-8.7709 0.68083-1.8706 2.1013-3.2656 3.8109-3.975 0.31349 0.69463 0.74936 1.3335 1.2799 1.8896-1.3504 0.41904-2.4904 1.4308-3.005 2.8446-0.87097 2.393 0.37075 5.0552 2.7642 5.9263 2.3934 0.87112 5.0558-0.37009 5.9268-2.763 0.51713-1.4208 0.28947-2.9366-0.4851-4.1188 0.76858-0.074757 1.518-0.28479 2.2078-0.61699zm-0.28773-0.47703c-0.73184 0.34236-1.5204 0.53478-2.3287 0.55915-0.49296-0.55743-1.126-1.0016-1.8704-1.2726-0.74792-0.27223-1.5221-0.33816-2.2571-0.22768-0.60066-0.54165-1.0816-1.1981-1.4259-1.927 0.64948-0.21952 1.3414-0.33553 2.0257-0.35692 0.43542 0.70985 1.1239 1.2941 1.9862 1.6079 0.85226 0.3102 1.7442 0.30894 2.5384 0.047327 0.52123 0.44783 0.97614 0.97935 1.3318 1.5698zm-2.5849 1.1203c0.84071 1.0722 1.1254 2.5373 0.62844 3.9028-0.76646 2.1058-3.1094 3.1981-5.2156 2.4315-2.1062-0.76661-3.1989-3.1094-2.4324-5.2152 0.49855-1.3698 1.6642-2.3107 2.996-2.5873 0.54742 0.4537 1.1803 0.82068 1.8844 1.0769 0.70376 0.25615 1.4242 0.38185 2.1393 0.3913zm-3.8281 4.2488c-0.95735-0.34845-1.4541-1.4133-1.1056-2.3705 0.34838-0.95718 1.4134-1.4536 2.3707-1.1052 0.95735 0.34845 1.454 1.4133 1.1056 2.3705-0.34838 0.9572-1.4134 1.4537-2.3707 1.1052zm8.3574-4.8203c1.1061-0.83153 1.9915-1.9799 2.4981-3.3717 1.3935-3.8288-0.5932-8.0883-4.4227-9.4821-3.8294-1.3938-8.0894 0.59214-9.4829 4.4209-0.50692 1.3927-0.56653 2.8424-0.2537 4.1901-1.7418 0.93331-3.1595 2.4835-3.8856 4.4784-1.5678 4.3073 0.66735 9.0993 4.9755 10.667 4.3081 1.568 9.1005-0.66614 10.668-4.9735 0.72618-1.9952 0.63643-4.0943-0.097005-5.9294zm-4.9291-4.5989c-0.71802-0.26136-1.0905-1.06-0.82923-1.7779 0.26128-0.71789 1.06-1.0903 1.778-0.8289 0.71804 0.26133 1.0905 1.06 0.82925 1.7779-0.26131 0.71789-1.06 1.0903-1.7781 0.82892z" fill="#008ACC"/>
 </g>
<metadata><rdf:RDF><cc:Work><dc:format>image/svg+xml</dc:format><dc:type rdf:resource="http://purl.org/dc/dcmitype/StillImage"/><cc:license rdf:resource="http://creativecommons.org/licenses/publicdomain/"/><dc:publisher><cc:Agent rdf:about="http://openclipart.org/"><dc:title>Openclipart</dc:title></cc:Agent></dc:publisher><dc:title>logo water</dc:title><dc:date>2010-05-08T12:08:56</dc:date><dc:description>abstract, circle, clip art, clipart, logo, sign, water, </dc:description><dc:source>http://openclipart.org/detail/59293/logo-water-by-jantonalcor</dc:source><dc:creator><cc:Agent><dc:title>jantonalcor</dc:title></cc:Agent></dc:creator><dc:subject><rdf:Bag><rdf:li>abstract</rdf:li><rdf:li>circle</rdf:li><rdf:li>clip art</rdf:li><rdf:li>clipart</rdf:li><rdf:li>logo</rdf:li><rdf:li>sign</rdf:li><rdf:li>water</rdf:li></rdf:Bag></dc:subject></cc:Work><cc:License rdf:about="http://creativecommons.org/licenses/publicdomain/"><cc:permits rdf:resource="http://creativecommons.org/ns#Reproduction"/><cc:permits rdf:resource="http://creativecommons.org/ns#Distribution"/><cc:permits rdf:resource="http://creativecommons.org/ns#DerivativeWorks"/></cc:License></rdf:RDF></metadata></svg>
